<svg data-v-0dd9719b="" version="1.0" xmlns="http://www.w3.org/2000/svg" xmlns:xlink="http://www.w3.org/1999/xlink" width="680" height="500" viewBox="0 0 340.000000 250.000000" preserveAspectRatio="xMidYMid meet" color-interpolation-filters="sRGB" style="margin: auto;"> <rect data-v-0dd9719b="" x="0" y="0" width="100%" height="100%" fill="#ffffff" fill-opacity="1" class="background"></rect> <rect data-v-0dd9719b="" x="0" y="0" width="100%" height="100%" fill="url(#watermark)" fill-opacity="1" class="watermarklayer"></rect> <g data-v-0dd9719b="" class="iconmbgsvg" transform="translate(85.60399627685547,77.15457153320312)"><g fill="#343c3e" hollow-target="text"><g transform="translate(6.396003723144531,0)" mask="url(#be28b677-4cbd-4200-83ec-31235f6be23d)"><g><rect fill="#343c3e" fill-opacity="0" stroke-width="2" x="0" y="0" width="93.99999999999999" height="95.690857451162" class="image-rect"></rect> <svg filter="url(#colors4233548824)" x="0" y="0" width="93.99999999999999" height="95.690857451162" filtersec="colorsf5363333406" class="image-svg-svg primary" style="overflow: visible;"><svg viewBox="0.47827911376953125 0.5585556030273438 133.09857177734375 135.49234008789062" xmlns="http://www.w3.org/2000/svg"><path d="M33.218 35.656C64.87 2.88 105.664-9.072 124.337 8.959c10.944 10.569 11.859 29.092 4.369 49.214 4.88-14.783 3.86-28.39-4.198-37.03-15.443-16.56-50.883-8.612-79.157 17.754-28.274 26.366-38.676 61.165-23.233 77.725 15.443 16.561 50.883 8.612 79.157-17.754 6.008-5.603 11.21-11.586 15.527-17.695-4.488 6.756-9.83 13.427-15.966 19.78-31.65 32.776-72.446 44.729-91.118 26.697-18.672-18.031-8.15-59.219 23.5-91.994z" fill="#333" fill-rule="evenodd"></path></svg></svg> <defs><filter id="colors4233548824"><feColorMatrix type="matrix" values="0 0 0 0 0.04296875  0 0 0 0 0.74609375  0 0 0 0 0.390625  0 0 0 1 0" class="icon-fecolormatrix"></feColorMatrix></filter> <filter id="colorsf5363333406"><feColorMatrix type="matrix" values="0 0 0 0 0.99609375  0 0 0 0 0.99609375  0 0 0 0 0.99609375  0 0 0 1 0" class="icon-fecolormatrix"></feColorMatrix></filter> <filter id="colorsb864623867"><feColorMatrix type="matrix" values="0 0 0 0 0  0 0 0 0 0  0 0 0 0 0  0 0 0 1 0" class="icon-fecolormatrix"></feColorMatrix></filter></defs></g></g> <g transform="translate(0,33.9848690032959)"><g data-gra="path-name" fill-rule="" class="tp-name" transform="translate(0,0)"><g transform="scale(1.2000000000000002)"><g><path d="M9.07 0L9.07-23.02 0.17-23.02 0.17-28.01 24.32-28.01 24.32-23.02 15.04-23.02 15.04 0 9.07 0ZM47.88-28.01L54.6-28.01 42.34 0 36.37 0 24.57-28.01 31.29-28.01 39.52-6.93 47.88-28.01ZM73.04 0L57.54 0 57.54-28.01 73.37-28.01Q77.11-28.01 78.79-27.13L78.79-27.13Q80.77-26.17 81.77-23.9L81.77-23.9Q82.49-22.34 82.49-20.66L82.49-20.66Q82.49-18.48 81.33-16.59 80.18-14.7 78.41-13.99L78.41-13.99Q82.49-12.14 82.49-7.39L82.49-7.39Q82.49-4.66 81.19-2.81L81.19-2.81Q80.05-1.22 78.29-0.61 76.52 0 73.04 0L73.04 0ZM63.5-23.02L63.5-16.51 71.61-16.51Q72.91-16.51 73.48-16.63 74.05-16.76 74.59-17.18L74.59-17.18Q75.89-18.19 75.89-19.95L75.89-19.95Q75.89-21.63 74.68-22.43L74.68-22.43Q73.79-23.02 71.74-23.02L71.74-23.02 63.5-23.02ZM63.5-11.51L63.5-5 71.61-5Q72.91-5 73.5-5.12 74.09-5.25 74.59-5.67L74.59-5.67Q75.89-6.68 75.89-8.44L75.89-8.44Q75.89-10.12 74.68-10.92L74.68-10.92Q73.79-11.51 71.74-11.51L71.74-11.51 63.5-11.51ZM99.16-28.18L99.16-28.18Q103.36-28.18 106.55-26.75L106.55-26.75Q110.29-25.03 111.8-21L111.8-21Q112.98-17.85 112.98-13.61L112.98-13.61Q112.98-9.32 111.55-6.17L111.55-6.17Q109.75-2.44 106.01-0.92L106.01-0.92Q103.24 0.17 99.62 0.17L99.62 0.17Q94.88 0.17 91.39-1.6L91.39-1.6Q88.45-3.07 86.9-6.22 85.34-9.37 85.34-13.86L85.34-13.86Q85.34-21.88 89.33-25.28L89.33-25.28Q92.69-28.14 99.16-28.18ZM99.2-23.48L99.2-23.48Q95.09-23.48 93.32-20.79L93.32-20.79Q91.9-18.69 91.9-14.03L91.9-14.03Q91.9-9.11 93.66-6.8L93.66-6.8Q95.42-4.54 99.25-4.54L99.25-4.54Q102.94-4.54 104.69-6.85 106.43-9.16 106.43-13.99L106.43-13.99Q106.43-18.4 105-20.71L105-20.71Q103.36-23.44 99.2-23.48ZM114.49 0L124.03-14.15 114.83-28.01 122.14-28.01 127.64-18.77 133.6-28.01 140.83-28.01 131.33-14.15 140.83 0 133.81 0 127.64-9.62 121.59 0 114.49 0Z" transform="translate(-0.17000000178813934, 28.18000030517578)"></path></g> <!----> <!----> <!----> <!----> <!----> <!----> <!----></g></g> <g data-gra="path-slogan" fill-rule="" class="tp-slogan" fill="#343C3E" transform="translate(123.59990406036377,38.02000045776367)"><!----> <!----> <g transform="scale(1, 1)"><g transform="scale(1.06)"><path d="M2.98-1.72L6.57-1.72L6.57 0L1.00 0L1.00-9.02L2.98-9.02L2.98-1.72ZM8.87 0L8.87-9.02L10.84-9.02L10.84 0L8.87 0ZM17.57 0.13L17.57 0.13Q16.66 0.13 15.96-0.03Q15.26-0.18 14.78-0.54Q14.30-0.90 14.05-1.50Q13.80-2.09 13.80-2.99L13.80-2.99L13.80-9.02L15.78-9.02L15.78-3.21Q15.78-2.81 15.86-2.50Q15.94-2.18 16.14-1.98Q16.35-1.77 16.70-1.66Q17.05-1.56 17.59-1.56L17.59-1.56Q18.15-1.56 18.50-1.68Q18.85-1.79 19.05-2.01Q19.25-2.22 19.33-2.53Q19.41-2.83 19.41-3.21L19.41-3.21L19.41-9.02L21.37-9.02L21.37-2.99Q21.37-2.16 21.12-1.57Q20.86-0.98 20.38-0.60Q19.89-0.22 19.19-0.05Q18.48 0.13 17.57 0.13Z" transform="translate(-1.0010000000000001, 9.022)"></path></g></g></g></g></g></g><mask id="be28b677-4cbd-4200-83ec-31235f6be23d"><g fill="white"><g><rect fill-opacity="1" stroke-width="2" x="0" y="0" width="93.99999999999999" height="95.690857451162" class="image-rect"></rect> <svg x="0" y="0" width="93.99999999999999" height="95.690857451162" class="image-svg-svg primary" style="overflow: visible;" filter="url(#colorsf5363333406)"><svg viewBox="0.47827911376953125 0.5585556030273438 133.09857177734375 135.49234008789062" xmlns="http://www.w3.org/2000/svg"><path d="M33.218 35.656C64.87 2.88 105.664-9.072 124.337 8.959c10.944 10.569 11.859 29.092 4.369 49.214 4.88-14.783 3.86-28.39-4.198-37.03-15.443-16.56-50.883-8.612-79.157 17.754-28.274 26.366-38.676 61.165-23.233 77.725 15.443 16.561 50.883 8.612 79.157-17.754 6.008-5.603 11.21-11.586 15.527-17.695-4.488 6.756-9.83 13.427-15.966 19.78-31.65 32.776-72.446 44.729-91.118 26.697-18.672-18.031-8.15-59.219 23.5-91.994z" fill-rule="evenodd"></path></svg></svg> <defs>  </defs></g></g> <g transform="translate(-6.396003723144531,33.9848690032959)" fill="black" stroke="black" stroke-width="6" stroke-linejoin="round"><g data-gra="path-name" fill-rule="" class="tp-name" transform="translate(0,0)"><g transform="scale(1.2000000000000002)"><g><path d="M9.07 0L9.07-23.02 0.17-23.02 0.17-28.01 24.32-28.01 24.32-23.02 15.04-23.02 15.04 0 9.07 0ZM47.88-28.01L54.6-28.01 42.34 0 36.37 0 24.57-28.01 31.29-28.01 39.52-6.93 47.88-28.01ZM73.04 0L57.54 0 57.54-28.01 73.37-28.01Q77.11-28.01 78.79-27.13L78.79-27.13Q80.77-26.17 81.77-23.9L81.77-23.9Q82.49-22.34 82.49-20.66L82.49-20.66Q82.49-18.48 81.33-16.59 80.18-14.7 78.41-13.99L78.41-13.99Q82.49-12.14 82.49-7.39L82.49-7.39Q82.49-4.66 81.19-2.81L81.19-2.81Q80.05-1.22 78.29-0.61 76.52 0 73.04 0L73.04 0ZM63.5-23.02L63.5-16.51 71.61-16.51Q72.91-16.51 73.48-16.63 74.05-16.76 74.59-17.18L74.59-17.18Q75.89-18.19 75.89-19.95L75.89-19.95Q75.89-21.63 74.68-22.43L74.68-22.43Q73.79-23.02 71.74-23.02L71.74-23.02 63.5-23.02ZM63.5-11.51L63.5-5 71.61-5Q72.91-5 73.5-5.12 74.09-5.25 74.59-5.67L74.59-5.67Q75.89-6.68 75.89-8.44L75.89-8.44Q75.89-10.12 74.68-10.92L74.68-10.92Q73.79-11.51 71.74-11.51L71.74-11.51 63.5-11.51ZM99.16-28.18L99.16-28.18Q103.36-28.18 106.55-26.75L106.55-26.75Q110.29-25.03 111.8-21L111.8-21Q112.98-17.85 112.98-13.61L112.98-13.61Q112.98-9.32 111.55-6.17L111.55-6.17Q109.75-2.44 106.01-0.92L106.01-0.92Q103.24 0.17 99.62 0.17L99.62 0.17Q94.88 0.17 91.39-1.6L91.39-1.6Q88.45-3.07 86.9-6.22 85.34-9.37 85.34-13.86L85.34-13.86Q85.34-21.88 89.33-25.28L89.33-25.28Q92.69-28.14 99.16-28.18ZM99.2-23.48L99.2-23.48Q95.09-23.48 93.32-20.79L93.32-20.79Q91.9-18.69 91.9-14.03L91.9-14.03Q91.9-9.11 93.66-6.8L93.66-6.8Q95.42-4.54 99.25-4.54L99.25-4.54Q102.94-4.54 104.69-6.85 106.43-9.16 106.43-13.99L106.43-13.99Q106.43-18.4 105-20.71L105-20.71Q103.36-23.44 99.2-23.48ZM114.49 0L124.03-14.15 114.83-28.01 122.14-28.01 127.64-18.77 133.6-28.01 140.83-28.01 131.33-14.15 140.83 0 133.81 0 127.64-9.62 121.59 0 114.49 0Z" transform="translate(-0.17000000178813934, 28.18000030517578)"></path></g>       </g></g> <g data-gra="path-slogan" fill-rule="" class="tp-slogan" transform="translate(123.59990406036377,38.02000045776367)">  <g transform="scale(1, 1)"><g transform="scale(1.06)"><path d="M2.98-1.72L6.57-1.72L6.57 0L1.00 0L1.00-9.02L2.98-9.02L2.98-1.72ZM8.87 0L8.87-9.02L10.84-9.02L10.84 0L8.87 0ZM17.57 0.13L17.57 0.13Q16.66 0.13 15.96-0.03Q15.26-0.18 14.78-0.54Q14.30-0.90 14.05-1.50Q13.80-2.09 13.80-2.99L13.80-2.99L13.80-9.02L15.78-9.02L15.78-3.21Q15.78-2.81 15.86-2.50Q15.94-2.18 16.14-1.98Q16.35-1.77 16.70-1.66Q17.05-1.56 17.59-1.56L17.59-1.56Q18.15-1.56 18.50-1.68Q18.85-1.79 19.05-2.01Q19.25-2.22 19.33-2.53Q19.41-2.83 19.41-3.21L19.41-3.21L19.41-9.02L21.37-9.02L21.37-2.99Q21.37-2.16 21.12-1.57Q20.86-0.98 20.38-0.60Q19.89-0.22 19.19-0.05Q18.48 0.13 17.57 0.13Z" transform="translate(-1.0010000000000001, 9.022)"></path></g></g></g></g></mask><defs v-gra="od"></defs></svg>